<svg width="1440" height="540" viewBox="0 0 1440 540" xmlns="http://www.w3.org/2000/svg" xmlns:xlink="http://www.w3.org/1999/xlink">
    <defs>
        <path id="a" d="M0 0h1440v540H0z"/>
        <path id="c" d="M0 0h1793.19v2629.302H0z"/>
    </defs>
    <g transform="matrix(1 0 0 -1 0 540)" fill="none" fill-rule="evenodd">
        <mask id="b" fill="#fff">
            <use xlink:href="#a"/>
        </mask>
        <path stroke="#F0D185" stroke-width="20" d="M10 10h1420v520H10z"/>
        <g mask="url(#b)">
            <g transform="rotate(-180 884.972 1502.99)">
                <mask id="d" fill="#fff">
                    <use xlink:href="#c"/>
                </mask>
                <path d="M18.965 958.105c-37.327 51.362-11.698 134.523 10.001 197.897 26.909 78.582 72.168 145.474 118.87 208.704 77.37 104.755 160.55 203.092 248.78 294.12 42.058 43.388 85.283 85.143 125.823 130.64 35.045 39.331 67.99 81.354 100.908 123.346l226.885 289.423c93.965 119.864 194.688 261.634 183.377 427.067 6.944-210.172 72.66-416.786 183.682-577.499 68.412-99.03 154.73-183.624 198.343-301.768 27.926-75.648 36.643-161.284 71.084-232.806 32.499-67.485 155.19-116.386 198.584-173.994 30.169-40.052 70.251-909.003 91.338-956.957 9.987-22.714 19.107-47.953 15.893-73.442-2.734-21.674-14.005-40.152-25.573-56.914-90.757-131.506-304.877-147.668-440.385-194.205-135.507-46.538-277.428-57.325-418.157-60.634C753.711-2.552 598.717 2.555 444.847 22.56 293.104 42.289 134.679 836.505 18.965 958.105" fill="#706EAF" mask="url(#d)"/>
            </g>
            <path d="m2920 2176.496-760.07-625.512c-124.92-102.806-249.884-205.648-371.719-315.615-212.104-191.446-415.322-404.963-640.738-563.08-140.576-98.606-292.314-178.162-405.795-331.437-30.173 150.315-13.245 318.26 45.426 450.663 68.652 154.922 189.608 260.271 237.501 430.099 69.808 247.544-36.307 559.86 67.818 781.984 34.389 73.356 87.177 124.458 134.868 180.999 73.759 87.44 137.605 191.574 188.364 307.224 39.374 89.71 72.54 189 131.083 254.52 62.243 69.66 143.856 90.858 220.785 118.495 104.26 37.457 206.627 90.734 313.832 103.304 107.202 12.57 224.15-22.848 296.102-135.952 58.401-91.81 78.794-226.136 59.183-346.48-19.61-120.343-76.703-225.476-150.014-292.57" fill="#E94B4C"/>
            <path d="M2813.33 825.304c-279.422-195.195-617.833-195.58-934.59-265.198-172.212-37.849-341.315-97.446-515.096-122.363-209.646-30.06-434.357 7.936-625.771-96.614-6.44-3.518.981-17.345-5.03-12.828-4.384 3.295-9.412 6.41-7.377 11.574C770.66 454.59 835.507 573.094 927.072 631.088c48.861 30.949 106.298 43.147 148.472 86.36 45.003 46.113 38.256 136.808 70.476 196.821 76.25 142.017 219.298 139.246 349.676 298.006 82.875 100.916 148.495 221.335 233.543 319.514 125.283 144.623 302.175 217.301 474.13 203.564 171.958-13.738 337.18-111.508 458.154-261.511 53.944-66.887 99.932-144.771 127.017-232.664 39.207-127.225 36.903-267.11 34.081-403.016" fill="#FF6F58"/>
            <path d="M2745.67-277.51c-19.77-62.482-69.128-103.247-118.683-131.898-195.511-113.043-426.497-95.41-634.538-23.09-208.039 72.318-401.562 195.245-603.199 290.879-92.133 43.697-187.783 82.863-266.26 156.27-61.35 57.386-109.467 133.29-168.565 194.098-59.101 60.807-156.5 101.74-219.623 118.964-8.146 37.885 47.634 42.16 81.209 56.562 33.575 14.403 72.643 27.968 108.171 30.4 108.48 7.425 217.858 18.838 306.086 96.323 94.95 83.39 159.442 225.693 272.26 263.253 74.627 24.844 156.868-2.54 229.872 28.68 45.567 19.49 83.36 60.258 128.7 80.525 82.36 36.813 177.033 1.2 260.118 35.5 41.68 17.203 77.235 50.757 115.229 77.859 93.443 66.66 209.041 94.297 312.019 53.715 101.955-40.183 181.9-143.21 227.56-261.627 45.66-118.418 60.297-251.352 62.621-382.226 4.2-236.54-29.808-471.321-63.695-704.265" fill="#0073B5"/>
            <path d="M736 342.083c70.873 13.475 152.301-11.044 211.321-60.85 39.507-33.337 63.81-89.858 105.615-118.703 32.326-22.303 71.238-25.18 108.272-22.017 179.57 15.345 349.767 158.429 526.733 118.135 86.297-19.65 163.512-82.86 220.303-164.657 20.228-29.132 39.024-61.588 66.593-79.606 38.332-25.048 84.706-16.904 128.01-12.31 119.734 12.697 241.73-7.574 354.34-58.88 62.446-28.45 123.975-68.28 164.751-132.697 53.984-85.283 63.675-202.245 48.73-308.509-14.944-106.264-51.731-205.708-83.236-306.422-6.292-20.115-3.904-53.983 13.408-49.961-131.114 10.58-252.533-74.779-376.302-128.697-170.552-74.294-354.093-90.2-535.08-96.663-77.782-2.778-157.671-3.53-230.721 29.234-91.073 40.845-161.585 129.033-228.797 214.524-39.778 50.598-79.667 101.355-114.09 157.51-38.557 62.902-69.844 131.907-101.002 200.66-34.023 75.083-68.156 150.452-93.518 230.486-56.983 179.823-89.793 409.688-175.228 573.424-2.821 5.407-14.075 5.865-8.639 16" fill="#004F96"/>
            <path d="M739.49 329.654c59.18 15.016 103.744-92.343 128.911-176.06 28.375-94.389 50.88-192.948 67.106-293.897 10.268-63.876 19.28-132.436 49.034-179.723 32.652-51.889 82.575-65.926 129.163-74.941 64.679-12.517 129.726-20.534 194.875-24.021 73.776-3.948 154.494-5.759 210.83-79.116 57.37-74.703 71.36-200.747 76.27-316.1 2.44-57.31 5.942-122.261 35.214-157.926 17.77-21.65 41.331-27.294 63.6-33.82 64.54-18.915 128.522-52.24 181.076-112.879 52.552-60.636-93.517-1090.444-86.811-1190.95 7.484-112.15-27.566-224.117-80.13-302.709-52.562-78.59-120.93-127.627-190.54-163.011-173.574-88.228-359.236-99.068-542.006-105.156-105.916-3.528-212.23-5.693-317.429 13.56-50.384 9.22-102.389 24.615-143.212 70.949-50.54 57.358-75.919 152.7-93.928 245.236-70.725 363.397 122.513 1689.872 136.56 2068.58 1.1 29.666 2.357 60.107 10.336 87.17 10.972 37.224 33.065 63.173 52.625 90.84C726.888-154.607 771.336 89.996 731.285 302.403" fill="#503E50"/>
            <path d="M741.295 325.707c50.617-72.617 48.24-169.105 33.92-262.874-14.32-93.77-50.075-180.215-83.109-266.64-15.516-40.597-30.88-84.894-23.695-128.831 12.601-77.064 85.239-113.578 121.499-178.486 25.848-46.27 31.756-105.032 30.428-161.031-3.48-146.984-51.193-293.632-27.344-437.757 9.604-58.037 92.101-648.393 27.518-870.643-79.217-272.618-339.14-812.811-391.436-839.658-82.122-42.156-172.287-54.774-261.262-59.909-190.019-10.966-380.647 10.199-568.08 49.923-75.779 16.06-156.737 38.947-207.69 109.345-41.263 57.004-55.643 137.693-49.796 213.458 5.848 75.767 297.21 1543.84 325.342 1611.737 32.413 78.232 70.701 153.333 118.556 218.677C-79.262-493.2 118.765-400.73 277.132-247.842c62.15 60 117.948 129.105 173.567 198.013L565.295 92.146c58.745 72.782 123.728 155.284 159.86 247.483" fill="#949A7F"/>
            <path d="M-1497-201.386c62.408 214.259 144.615 45.426 227.986 32.04 43.007-6.906 82.117-32.777 121.573-54.8 199.937-111.595 425.014-130.013 644.385-146.75 50.726-3.871 102.537-7.616 151.579 8.693 39.768 13.224 75.825 39.04 111.35 64.574 64.578 46.419 129.228 92.892 190.782 145.094C11.21-101.178 68.619-44.403 129.685 6.047 300.18 146.91 495.3 235.498 688.306 322.78c5.869 2.656 30.507 16.127 36.745 16.757 12.404 1.254 1.022-10.235 5.102-31.664 15.08-79.19-6.792-180.882-41.32-250.38-34.852-70.155-99.64-107.62-151.388-159.926-49.913-50.45-88.867-116.946-111.864-190.95-12.986-41.792-21.251-86.569-41.756-123.587-73.738-133.122-252.443-94.204-349.79-202.314-53.244-59.133-73.102-153.28-126.122-212.717-52.434-58.778-164.131-114.144-200.23-189.078-146.856-304.869-329.787-225.78-478.433-182.736-148.642 43.045-277.48 257.646-383.914 391.574-53.03 66.727-96.61 169.413-150.05 235.648-53.44 66.235-162.326 193.782-185.626 294.427" fill="#F0D185"/>
            <path d="M-1536.269 523.913c459.985-269.456 705.886-262.155 1214.712-304.86 86.847-7.287 179.11-14.283 249.978-76.115 137.346 14.99 265.855 85.182 395.142 143.825C452.851 345.405 605.435 386.853 741 356.007 666.785 250.125 570.311 144.82 458.473 117.62c-25.787-6.272-52.713-7.827-76.849-20.584-72.666-38.406-88.308-154.307-136.658-230.97C190.942-219.594 98.26-303.243 11.181-322.23c-87.08-18.989-179.21 19.666-251.369-42.902-50.204-43.533-86.216-107.636-134.721-153.964-67.446-64.418-153.677-89.886-237.007-113.702-98.794-28.236-200.317-56.652-300.805-39.56-135.301 23.01-254.026 127.438-341.885 255.37-87.861 127.934-113.603 311.773-212.039 427.617-179.95 211.776-269.654 572.265-69.624 513.284" fill="#F99A78"/>
            <path d="M-1215.536 841.515c304.761-184.028 668.96-144.791 989.567-282.873 67.282-28.977 132.635-65.775 202.231-84.918 186.454-51.284 383.417 28.626 571.291-14.217 73-16.647 217.824-92.906 177.477-119.88C502.88 355.118 292.184 260.023 97.51 108.74 53.424 74.476-14.248 37.585-61.982 11.628c-86.533-47.052-188.462-50.024-276.733-8.065-31.36 14.907-60.965 35.166-92.876 48.21-144.817 59.2-298.404-38.762-450.514-55.218-234.272-25.345-472.057 171.532-539.673 446.829-12.487 50.845-19.549 106.29-5.443 156.5 11.868 42.246 37.51 76.472 64.526 106.556 45.3 50.447 78.8 157.406 147.16 135.075" fill="#716EB0"/>
            <path d="M-1050.516 1323.778c263.95-50.217 538.913-105.804 755.29-297.524 85.54-75.79 160.37-171.761 255.549-227.746 140.993-82.934 308.37-67.707 454.392-136.375 122.99-57.838 206.675-169.175 302.692-279.605 5.128-5.896 18.578-16.164 21.027-24.238 7.179-23.659-55.947 13.759-74.961 23.52-29.416 15.098-87.609 33.046-108.174 34.843-89.666 7.84-107.803 10.983-197.37-6.968-89.566-17.952-140.673-75.16-223.514-120.541-37.927-20.775-79.854-42.283-119.748-28.058-60.603 21.613-84.121 111.584-133.953 159.01-64.318 61.211-157.563 39.673-233.01 2.042-75.449-37.63-151.523-89.51-232.635-80.147-49.098 5.668-94.34 33.528-141.28 52.042-63.537 25.058-131.355 33.32-192.83 65.161-109.435 56.681-187.567 185.5-218.017 326.092-30.448 140.592-17.256 291.288 18.904 429.837 10.713 41.039 31.942 108.655 122.172 98.18" fill="#B2B58C"/>
            <path d="M297.074 1086.312c41.65-56.744 83.34-113.54 128.091-166.643 40.992-48.64 84.517-94.135 123.76-144.88C639.67 657.444 706.279 512.475 741 356.745 663.07 446.18 576.099 534.17 470.889 557.602c-49.202 10.957-99.712 7.036-149.62 3.077l-213.214-16.912c-36.741-2.915-74.379-5.718-109.71 6.933-79.518 28.474-127.864 126.278-199.107 177.965-54.897 39.83-119.705 49.354-182.456 49.252-47.945-.077-130.031-29.244-171.317 6.401-21.514 18.575-35.189 47.642-46.521 76.686-11.332 29.044-21.23 59.453-37.793 84.472-29.297 44.259-75.658 66.023-121.084 78.736-45.426 12.712-92.514 18.45-135.804 39.527-17.75 8.642-35.024 20.126-47.85 37.422-22.627 30.514-28.265 74.592-27.314 115.743 2.374 102.717 40.304 202.223 98.898 275.977 58.592 73.755 136.784 122.366 218.974 144.413 64.831 17.39 131.725 18.83 198.091 20.198l288.609 5.95c30.47.628 62.37.87 89.465-16.155 37.582-23.615 58.187-74.928 70.214-122.064 13.717-53.75 46.76-88.807 77.343-130.477l226.381-308.434" fill="#F0AA94"/>
            <path d="M-232.6 1835.975c-350.185-57.421-209.746-220.705-77.354-347.91 51.868-49.836 144.384-91.702 190.938-105.506 34.731-10.297 113.464-109.626 129.656-148.492 14.512-34.84 21.234-61.226 29.89-98.845 14.264-61.993 23.685-136.107 45.625-194.68 29.463-78.657 41.2-112.26 105.252-152.144 63.19-39.35 200.523-89.231 270.44-104.049 193.31-40.966 277.621-327.235 276.134-325.16-5.405 92.152-8.357 198.55-13.76 290.688-2.366 40.315-4.785 81.013-14.31 119.727-21.07 85.65-55.145 167.323-108.574 228.623-53.428 61.298-129.472 108.166-160.907 188.963-19.123 49.146-41.538 184.216-54.09 277.782-6.556 48.859-24.369 94.41-51.342 131.345L182.64 1804.941c-38.089 52.154-94.629 78.253-151.41 69.89l-263.832-38.856z" fill="#E4CBB9"/>
        </g>
    </g>
</svg>
